<svg width="20" height="20" viewBox="0 0 20 20" fill="none" xmlns="http://www.w3.org/2000/svg">
<path d="M17.3304 8.63021L4.20069 1.13803C3.92386 0.982957 3.60638 0.915844 3.29047 0.945614C2.97457 0.975385 2.67522 1.10063 2.43223 1.30468C2.18925 1.50874 2.01414 1.78194 1.93022 2.08794C1.84629 2.39395 1.85752 2.71825 1.96241 3.01771L4.32022 9.99896L1.96241 16.9802C1.87951 17.2157 1.85427 17.4677 1.88878 17.715C1.9233 17.9623 2.01657 18.1977 2.16079 18.4015C2.30501 18.6053 2.49597 18.7716 2.71768 18.8864C2.93938 19.0012 3.18538 19.0613 3.43506 19.0615C3.70356 19.0609 3.96743 18.9915 4.20147 18.8599L4.2085 18.8552L17.3335 11.3497C17.5742 11.2135 17.7743 11.0159 17.9136 10.777C18.0529 10.5381 18.1263 10.2665 18.1263 9.98998C18.1263 9.71345 18.0529 9.44187 17.9136 9.20298C17.7743 8.96409 17.5742 8.76644 17.3335 8.63021H17.3304ZM3.99678 16.8162L5.98272 10.9365H10.3101C10.5587 10.9365 10.7972 10.8377 10.973 10.6619C11.1488 10.4861 11.2476 10.2476 11.2476 9.99896C11.2476 9.75032 11.1488 9.51187 10.973 9.33605C10.7972 9.16024 10.5587 9.06146 10.3101 9.06146H5.98272L3.996 3.18021L15.9304 9.99037L3.99678 16.8162Z" fill="#8E8E93"/>
</svg>
